<svg xmlns="http://www.w3.org/2000/svg" width="430" height="100" viewBox="0 0 430 100" fill="none">
  <g transform="translate(0 8) scale(0.84)">
    <path d="M30 14 H17 A3 3 0 0 0 14 17 V83 A3 3 0 0 0 17 86 H30" stroke="#FFFFFF" stroke-width="9" stroke-linecap="round"></path>
    <path d="M70 14 H83 A3 3 0 0 1 86 17 V83 A3 3 0 0 1 83 86 H70" stroke="#FFFFFF" stroke-width="9" stroke-linecap="round"></path>
    <rect x="38" y="33" width="24" height="8.5" rx="4.25" fill="#FFFFFF"></rect>
    <rect x="38" y="50" width="24" height="8.5" rx="4.25" fill="#FFFFFF" opacity="0.5"></rect>
    <rect x="38" y="67" width="24" height="8.5" rx="4.25" fill="#FFFFFF" opacity="0.5"></rect>
  </g>
  <text x="104" y="66" font-family="&#39;Space Grotesk&#39;,&#39;Segoe UI&#39;,sans-serif" font-size="56" letter-spacing="-1.5">
    <tspan fill="#FFFFFF" font-weight="600">Repo</tspan><tspan fill="#FFFFFF" font-weight="700">IF</tspan>
  </text>
</svg>